HIERARCHY
ROOT Hips
{
	OFFSET -0.001795 -0.223333 0.028219
	CHANNELS 6 Xposition Yposition Zposition Zrotation Yrotation Xrotation 
	JOINT LeftUpLeg
	{
		OFFSET 0.069520 -0.091406 -0.006815
		CHANNELS 3 Zrotation Yrotation Xrotation
		JOINT LeftLeg
		{
			OFFSET 0.034277 -0.375199 -0.004496
			CHANNELS 3 Zrotation Yrotation Xrotation
			JOINT LeftFoot
			{
				OFFSET -0.013596 -0.397961 -0.043693
				CHANNELS 3 Zrotation Yrotation Xrotation
				JOINT LeftToe
				{
					OFFSET 0.026358 -0.055791 0.119288
					CHANNELS 3 Zrotation Yrotation Xrotation
					End Site
					{
						OFFSET 0.000000 0.000000 0.000000
					}
				}
			}
		}
	}
	JOINT RightUpLeg
	{
		OFFSET -0.067670 -0.090522 -0.004320
		CHANNELS 3 Zrotation Yrotation Xrotation
		JOINT RightLeg
		{
			OFFSET -0.038290 -0.382569 -0.008850
			CHANNELS 3 Zrotation Yrotation Xrotation
			JOINT RightFoot
			{
				OFFSET 0.015774 -0.398415 -0.042312
				CHANNELS 3 Zrotation Yrotation Xrotation
				JOINT RightToe
				{
					OFFSET -0.025372 -0.048144 0.123348
					CHANNELS 3 Zrotation Yrotation Xrotation
					End Site
					{
						OFFSET 0.000000 0.000000 0.000000
					}
				}
			}
		}
	}
	JOINT Spine
	{
		OFFSET -0.002533 0.108963 -0.026696
		CHANNELS 3 Zrotation Yrotation Xrotation
		JOINT Spine1
		{
			OFFSET 0.005487 0.135180 0.001092
			CHANNELS 3 Zrotation Yrotation Xrotation
			JOINT Spine2
			{
				OFFSET 0.001457 0.052922 0.025425
				CHANNELS 3 Zrotation Yrotation Xrotation
				JOINT Neck
				{
					OFFSET -0.002778 0.213870 -0.042857
					CHANNELS 3 Zrotation Yrotation Xrotation
					JOINT Head
					{
						OFFSET 0.005152 0.064970 0.051349
						CHANNELS 3 Zrotation Yrotation Xrotation
						End Site
						{
							OFFSET 0.000000 0.000000 0.000000
						}
					}
				}
				JOINT LeftShoulder
				{
					OFFSET 0.078845 0.121749 -0.034090
					CHANNELS 3 Zrotation Yrotation Xrotation
					JOINT LeftArm
					{
						OFFSET 0.090977 0.030469 -0.008868
						CHANNELS 3 Zrotation Yrotation Xrotation
						JOINT LeftForeArm
						{
							OFFSET 0.259612 -0.012772 -0.027456
							CHANNELS 3 Zrotation Yrotation Xrotation
							JOINT LeftHand
							{
								OFFSET 0.249234 0.008986 -0.001171
								CHANNELS 3 Zrotation Yrotation Xrotation
								End Site
								{
									OFFSET 0.000000 0.000000 0.000000
								}
							}
						}
					}
				}
				JOINT RightShoulder
				{
					OFFSET -0.081759 0.118833 -0.038615
					CHANNELS 3 Zrotation Yrotation Xrotation
					JOINT RightArm
					{
						OFFSET -0.096012 0.032551 -0.009143
						CHANNELS 3 Zrotation Yrotation Xrotation
						JOINT RightForeArm
						{
							OFFSET -0.253742 -0.013329 -0.021401
							CHANNELS 3 Zrotation Yrotation Xrotation
							JOINT RightHand
							{
								OFFSET -0.255298 0.007772 -0.005559
								CHANNELS 3 Zrotation Yrotation Xrotation
								End Site
								{
									OFFSET 0.000000 0.000000 0.000000
								}
							}
						}
					}
				}
			}
		}
	}
}
MOTION
Frames: 13
Frame Time: 0.050000
-0.076373 0.943125 -0.029795 3.155369 0.578197 15.377686 7.506949 -0.956840 -22.444637 -3.606072 0.351877 11.846069 2.965179 10.184249 15.077294 0.000000 0.000000 0.000000 -7.979789 1.055929 -20.669266 1.978863 -0.070774 6.374407 -4.360442 -13.096958 11.552619 0.000000 0.000000 0.000000 5.953824 -0.995927 6.579381 2.245609 -0.746788 -5.380081 -9.506315 4.342190 4.335296 15.757551 -9.655644 -9.517988 0.000000 0.000000 0.000000 -6.731866 -14.120869 4.460026 -48.737386 -44.494568 12.770296 49.140278 -58.156003 -26.867184 0.000000 0.000000 0.000000 9.082578 -0.556751 -0.294133 63.053379 41.365356 18.996519 -108.439629 42.192196 -45.494213 0.000000 0.000000 0.000000 
-0.076959 0.943799 -0.027451 3.153557 0.869284 15.203327 7.372852 -0.974820 -21.921330 -3.348836 0.291267 11.764156 2.792648 9.810310 14.385962 0.000000 0.000000 0.000000 -8.045331 1.016261 -20.051482 2.253022 -0.124037 5.981129 -4.448364 -13.238635 11.702208 0.000000 0.000000 0.000000 6.004703 -0.914131 5.672036 2.287400 -0.785941 -4.897184 -9.213658 3.089625 4.199427 15.217257 -9.483404 -8.950202 0.000000 0.000000 0.000000 -5.899731 -12.137517 3.818943 -49.257404 -44.031087 12.812490 56.058970 -60.192113 -32.216102 0.000000 0.000000 0.000000 8.622493 -2.131491 -1.136928 66.177682 39.124927 18.671630 -114.164371 44.043905 -53.228730 0.000000 0.000000 0.000000 
-0.077759 0.944485 -0.024298 3.079739 0.913227 14.638807 7.349747 -0.935873 -20.649735 -2.935171 0.207147 11.453260 2.276239 8.771635 13.383453 0.000000 0.000000 0.000000 -7.751103 1.008822 -18.818650 2.064457 -0.108387 5.258578 -4.392214 -13.118805 11.705833 0.000000 0.000000 0.000000 6.362241 -0.853734 4.765527 1.885163 -0.620975 -4.998730 -8.823676 2.699853 4.408666 14.741227 -9.585428 -7.601934 0.000000 0.000000 0.000000 -4.733498 -10.176484 3.144960 -50.539963 -43.745893 13.086248 65.526503 -62.606075 -40.342665 0.000000 0.000000 0.000000 7.645024 -4.136891 -2.019878 69.669648 36.660175 18.296848 -118.711653 46.256889 -60.708835 0.000000 0.000000 0.000000 
-0.078413 0.944661 -0.021567 3.029521 1.058648 14.136451 7.339513 -0.905795 -19.606447 -2.760031 0.168404 11.371488 2.058566 8.144883 12.190986 0.000000 0.000000 0.000000 -7.534916 0.989630 -17.841310 1.955454 -0.101362 4.865030 -4.418034 -13.128119 11.587205 0.000000 0.000000 0.000000 6.543100 -0.746010 3.611386 1.607976 -0.537879 -4.362026 -8.213726 2.504255 4.139141 14.295574 -9.227832 -7.739508 0.000000 0.000000 0.000000 -3.639565 -7.597526 2.245618 -52.289437 -43.346927 13.470807 76.180835 -64.715085 -50.179562 0.000000 0.000000 0.000000 6.566078 -5.976591 -2.747158 72.125189 34.344363 17.586634 -122.837332 47.651386 -67.124423 0.000000 0.000000 0.000000 
-0.078853 0.944651 -0.019977 2.987421 1.054866 13.423296 7.291746 -0.863673 -18.376111 -2.435573 0.109044 10.884553 1.753721 7.552957 11.851133 0.000000 0.000000 0.000000 -7.447381 0.952376 -16.671888 2.014471 -0.120115 4.351828 -4.366764 -12.999182 11.406959 0.000000 0.000000 0.000000 6.832710 -0.677657 2.854716 1.398961 -0.438779 -4.718227 -7.792539 2.829116 4.369492 14.060272 -9.148659 -7.506476 0.000000 0.000000 0.000000 -2.730009 -6.097275 1.756445 -53.243873 -42.386437 13.184103 87.650824 -65.815180 -60.935063 0.000000 0.000000 0.000000 6.034443 -7.159342 -3.177710 73.715912 32.393287 16.761259 -126.758502 49.976312 -74.571057 0.000000 0.000000 0.000000 
-0.078822 0.944527 -0.019671 2.980421 0.629399 13.185434 7.176235 -0.844345 -17.902034 -2.545579 0.140449 10.854727 2.217169 8.164074 11.448739 0.000000 0.000000 0.000000 -7.395522 0.971269 -16.723252 1.882044 -0.088665 4.794562 -4.191019 -12.688148 11.191926 0.000000 0.000000 0.000000 7.077392 -0.614882 2.110421 1.049468 -0.314863 -4.335000 -7.115687 3.430198 4.301834 13.926463 -8.912345 -7.992328 0.000000 0.000000 0.000000 -2.045792 -4.393183 1.203956 -54.747097 -41.073516 12.895178 98.351373 -66.427496 -71.465116 0.000000 0.000000 0.000000 4.977746 -7.975645 -3.390393 75.057343 31.780836 16.896222 -129.499118 52.026798 -80.554278 0.000000 0.000000 0.000000 
-0.078147 0.944498 -0.020267 3.272893 0.445772 12.933429 6.860183 -0.867343 -17.808240 -2.608518 0.155674 10.931261 2.203403 8.241754 11.930709 0.000000 0.000000 0.000000 -7.698461 0.941470 -16.613491 1.755002 -0.064608 4.986344 -4.133410 -12.573674 11.045245 0.000000 0.000000 0.000000 7.347364 -0.592272 1.771937 0.749706 -0.206264 -3.947066 -6.942485 3.994682 4.151973 13.916136 -8.898056 -7.957866 0.000000 0.000000 0.000000 -2.007510 -3.382175 0.835941 -55.011607 -39.765725 12.206916 103.736025 -66.810516 -77.353069 0.000000 0.000000 0.000000 4.201324 -8.144699 -3.358410 75.550701 31.665213 17.161357 -130.514710 53.212437 -83.200375 0.000000 0.000000 0.000000 
-0.076983 0.944452 -0.021569 3.604009 0.124761 12.653876 6.412082 -0.900537 -17.737342 -2.772091 0.196202 10.838213 2.561718 9.004559 12.857316 0.000000 0.000000 0.000000 -8.149977 0.909101 -16.721587 1.732816 -0.047795 5.480430 -4.023842 -12.375823 10.894770 0.000000 0.000000 0.000000 7.278378 -0.570520 1.686469 0.860810 -0.264522 -3.680549 -7.059100 4.971484 3.802744 14.797941 -9.395612 -8.297530 0.000000 0.000000 0.000000 -2.149537 -2.967743 0.637834 -55.489726 -38.085046 11.342725 106.066191 -68.348295 -81.845188 0.000000 0.000000 0.000000 3.767317 -8.372850 -3.379628 75.838429 31.521513 17.465449 -129.625242 54.504961 -83.385996 0.000000 0.000000 0.000000 
-0.075656 0.944747 -0.023269 4.036935 0.045428 12.607319 5.924236 -0.965609 -18.037334 -2.958902 0.234168 10.850080 2.724271 9.474798 13.846241 0.000000 0.000000 0.000000 -8.656183 0.867760 -16.944459 1.608359 -0.021979 5.772660 -4.015687 -12.375370 10.955201 0.000000 0.000000 0.000000 7.335552 -0.568936 1.644669 0.902093 -0.284281 -3.626419 -7.344187 5.390536 3.851861 15.476565 -9.757817 -8.690011 0.000000 0.000000 0.000000 -2.653099 -2.943966 0.540729 -56.043968 -37.390586 11.070788 102.350494 -69.659416 -79.707279 0.000000 0.000000 0.000000 3.426709 -7.821193 -3.115742 75.258382 32.079967 17.823522 -124.608617 54.726626 -77.528746 0.000000 0.000000 0.000000 
-0.074756 0.945099 -0.025037 4.159032 -0.059463 12.509900 5.755007 -0.985798 -18.183028 -3.015549 0.248022 10.812349 2.817549 9.767147 14.602100 0.000000 0.000000 0.000000 -8.869434 0.846502 -16.828237 1.622906 -0.029780 5.509012 -3.941092 -12.267376 11.124127 0.000000 0.000000 0.000000 7.506998 -0.554502 1.435032 1.154060 -0.401269 -3.369422 -7.991098 5.654398 3.346223 16.424007 -10.614864 -8.071038 0.000000 0.000000 0.000000 -3.398775 -3.646776 0.662287 -55.402894 -36.924967 10.706322 95.508815 -70.245872 -73.898025 0.000000 0.000000 0.000000 3.480411 -7.503407 -2.985109 74.827530 32.166328 17.876061 -118.914494 54.630062 -71.137113 0.000000 0.000000 0.000000 
-0.074569 0.945633 -0.026511 4.199847 0.039277 12.505887 5.449682 -1.028166 -18.266467 -2.809000 0.204009 10.736605 3.121579 10.279411 14.745080 0.000000 0.000000 0.000000 -8.877786 0.840880 -16.808854 1.543332 -0.022631 5.345604 -3.949117 -12.310732 11.372089 0.000000 0.000000 0.000000 7.333909 -0.506953 1.089230 1.559846 -0.584513 -3.092916 -8.079471 5.264405 3.174273 16.897622 -11.002181 -7.959624 0.000000 0.000000 0.000000 -3.778331 -3.924601 0.725421 -55.029013 -36.517052 10.490412 89.431377 -70.465814 -68.285492 0.000000 0.000000 0.000000 3.547515 -7.652945 -3.058978 74.681416 32.389369 17.921610 -113.563009 53.910085 -65.083972 0.000000 0.000000 0.000000 
-0.075006 0.946312 -0.027605 4.074601 0.221450 12.292556 5.669585 -1.001903 -18.167799 -2.814027 0.201271 10.762110 2.892840 9.989089 14.952859 0.000000 0.000000 0.000000 -8.704245 0.836094 -16.305370 1.572786 -0.041776 4.786346 -3.950199 -12.335443 11.667089 0.000000 0.000000 0.000000 7.411396 -0.475822 0.783544 1.665511 -0.623094 -3.228215 -8.238982 4.458435 3.305593 17.188261 -11.436078 -7.410505 0.000000 0.000000 0.000000 -3.611928 -4.464223 0.985771 -54.041672 -36.826175 10.479509 82.131712 -69.571023 -60.521880 0.000000 0.000000 0.000000 3.744450 -7.525551 -3.043692 74.294912 32.448892 17.585271 -107.675350 52.329693 -58.075421 0.000000 0.000000 0.000000 
-0.075673 0.946670 -0.028542 3.778686 -0.091950 12.274903 6.003645 -0.935400 -17.743829 -2.872498 0.224782 10.191933 3.076164 10.184542 14.762147 0.000000 0.000000 0.000000 -8.213122 0.892799 -16.324348 1.310593 -0.006855 4.591435 -3.756894 -12.037968 11.810083 0.000000 0.000000 0.000000 7.211443 -0.460291 0.769657 1.710245 -0.640548 -3.310333 -7.959820 3.869039 3.251253 17.246335 -11.427999 -7.584570 0.000000 0.000000 0.000000 -3.058447 -4.313572 1.040952 -53.436674 -37.253617 10.635337 77.320200 -68.751918 -55.279035 0.000000 0.000000 0.000000 3.430365 -8.219748 -3.307455 74.334798 32.295702 17.291127 -105.051347 50.897751 -54.605370 0.000000 0.000000 0.000000 
